<?xml version="1.0" encoding="utf-8"?>
<!-- Generator: Adobe Illustrator 22.1.0, SVG Export Plug-In . SVG Version: 6.00 Build 0)  -->
<svg version="1.1" id="Layer_2" xmlns="http://www.w3.org/2000/svg" xmlns:xlink="http://www.w3.org/1999/xlink" x="0px" y="0px"
	 viewBox="0 0 119.6 119.6" style="enable-background:new 0 0 119.6 119.6;" xml:space="preserve">
<style type="text/css">
	.st0{fill:#CD1B68;}
	.st1{fill:#FFFFFF;}
</style>
<g>
	
		<ellipse transform="matrix(0.9997 -2.490137e-02 2.490137e-02 0.9997 -1.4708 1.5079)" class="st0" cx="59.8" cy="59.8" rx="59.8" ry="59.8"/>
	<g>
		<g>
			<path class="st1" d="M66.7,35.2c0,3.9-3.1,7-7,7c-3.9,0-7-3.1-7-7c0-3.9,3.1-7,7-7C63.6,28.2,66.7,31.4,66.7,35.2z"/>
			<path class="st1" d="M59.9,48c0,0,2.9,0.7,7.7-4.4c5.7-6.1,9.5-11.5,9.5-11.5s1.9-1,3,0c1.1,1,1,2.7,0,4.2
				c-1,1.5-12.3,16-12.3,16l0.1,8.5l11.6,23.3c0,0,6.4,4.4,2.7,4.6c-3.7,0.2-7.3,0-7.3,0L59.7,67.4L45,88.9l-9.1-0.4
				c0,0-2.6-2,4.8-4.5l11.1-23.7l-0.2-7.9L39.1,35.8c0,0-2.3-2.9-0.3-4.1c2-1.2,3.4-0.1,4.1,0.8c0.7,0.9,9.3,11.1,9.3,11.1
				S54.7,48,59.9,48z"/>
		</g>
		<g>
			<path class="st1" d="M94,50c0,1.8-1.5,3.3-3.3,3.3c-1.8,0-3.3-1.5-3.3-3.3c0-1.8,1.5-3.3,3.3-3.3C92.5,46.7,94,48.2,94,50z"/>
			<path class="st1" d="M90.8,56c0,0,1.4,0.3,3.6-2.1c2.7-2.9,4.5-5.4,4.5-5.4s0.9-0.5,1.4,0c0.5,0.5,0.5,1.3,0,2
				c-0.5,0.7-5.8,7.6-5.8,7.6l0,4l5.5,11c0,0,3,2.1,1.3,2.2c-1.8,0.1-3.4,0-3.4,0l-7.2-10.1l-6.9,10.2l-4.3-0.2c0,0-1.2-0.9,2.3-2.1
				L87,61.8l-0.1-3.7L81,50.3c0,0-1.1-1.4-0.2-2c0.9-0.6,1.6,0,1.9,0.4c0.3,0.4,4.4,5.2,4.4,5.2S88.4,56,90.8,56z"/>
		</g>
		<g>
			<path class="st1" d="M33.9,50c0,1.8-1.5,3.3-3.3,3.3c-1.8,0-3.3-1.5-3.3-3.3c0-1.8,1.5-3.3,3.3-3.3C32.4,46.7,33.9,48.2,33.9,50z
				"/>
			<path class="st1" d="M30.7,56c0,0,1.4,0.3,3.6-2.1c2.7-2.9,4.5-5.4,4.5-5.4s0.9-0.5,1.4,0c0.5,0.5,0.5,1.3,0,2
				c-0.5,0.7-5.8,7.6-5.8,7.6l0,4l5.5,11c0,0,3,2.1,1.3,2.2c-1.8,0.1-3.4,0-3.4,0l-7.2-10.1l-6.9,10.2l-4.3-0.2c0,0-1.2-0.9,2.3-2.1
				l5.2-11.2l-0.1-3.7l-5.9-7.8c0,0-1.1-1.4-0.2-2c0.9-0.6,1.6,0,1.9,0.4c0.3,0.4,4.4,5.2,4.4,5.2S28.2,56,30.7,56z"/>
		</g>
	</g>
</g>
</svg>
