<?xml version="1.0" encoding="utf-8"?>
<!-- Generator: Adobe Illustrator 22.1.0, SVG Export Plug-In . SVG Version: 6.00 Build 0)  -->
<svg version="1.1" id="Layer_1" xmlns="http://www.w3.org/2000/svg" xmlns:xlink="http://www.w3.org/1999/xlink" x="0px" y="0px"
	 viewBox="0 0 430.6 540.5" style="enable-background:new 0 0 430.6 540.5;" xml:space="preserve">
<style type="text/css">
	.st0{fill:#CE1C6A;}
</style>
<path class="st0" d="M288.8,383.1H131.4v-10.4c0-18.8-7.6-36.6-21.3-50.6c-30.2-30.6-45.4-72.9-41.9-116
	c5.9-71.9,64.7-129.8,136.6-134.8c41.4-2.9,80.9,11.1,111.2,39.3c29.8,27.8,46.9,67.2,46.9,107.9c0,39.7-15.5,76.9-43.7,104.8
	c-12.7,12.6-20,30.4-20,48.8v10.4L288.8,383.1z M151.6,362.4H279c2.3-20.5,11.3-39.5,25.5-53.6c24.2-24,37.6-56,37.6-90
	c0-35-14.7-68.8-40.3-92.8c-26-24.3-59.9-36.2-95.6-33.8c-61.8,4.3-112.3,54-117.4,115.8c-3,37,10.1,73.4,36,99.7
	C140,323,149.3,342.1,151.6,362.4 M210.8,131.6c2.1-0.1,4.2-0.2,6.3-0.2v-13.8c-2.4,0-4.8,0.1-7.2,0.2
	c-49.3,3.4-89.5,43.1-93.6,92.3l13.8,1.1C133.5,168.7,168.2,134.5,210.8,131.6 M298.4,391.3H132.2V412h166.2V391.3z M298.4,419
	H132.2v20.8h166.2V419z M218.5,540.5h-6.4c-45,0-81.6-36.6-81.6-81.6v-10.4h169.6v10.4C300.1,503.8,263.5,540.5,218.5,540.5
	 M152.1,469.2c4.9,28.6,30,50.5,60,50.5h6.4c30,0,55-21.9,60-50.5H152.1z M225.7,45.8V10.4C225.7,4.6,221,0,215.3,0
	c-5.7,0-10.4,4.6-10.4,10.4v35.5c0,5.7,4.6,10.4,10.4,10.4C221,56.2,225.7,51.6,225.7,45.8 M159.8,66c5.4-2,8.2-7.9,6.2-13.3
	l-12.1-33.3c-2-5.4-7.9-8.2-13.3-6.2c-5.4,2-8.2,7.9-6.2,13.3l12.1,33.3c1.5,4.2,5.5,6.8,9.8,6.8C157.4,66.6,158.6,66.4,159.8,66
	 M111,94.2c4.4-3.7,5-10.2,1.3-14.6L89.5,52.4c-3.7-4.4-10.2-5-14.6-1.3c-4.4,3.7-5,10.2-1.3,14.6l22.8,27.2c2.1,2.4,5,3.7,8,3.7
	C106.7,96.6,109.1,95.8,111,94.2 M74.8,137.3c2.9-5,1.2-11.3-3.8-14.2l-30.7-17.7c-5-2.9-11.3-1.2-14.2,3.8
	c-2.9,5-1.2,11.3,3.8,14.2l30.7,17.7c1.6,0.9,3.4,1.4,5.2,1.4C69.4,142.5,72.9,140.7,74.8,137.3 M55.5,190.3c1-5.6-2.8-11-8.4-12
	l-34.9-6.2c-5.6-1-11,2.8-12,8.4c-1,5.6,2.8,11,8.4,12l34.9,6.2c0.6,0.1,1.2,0.2,1.8,0.2C50.2,198.9,54.6,195.3,55.5,190.3
	 M12.2,264.8l34.9-6.2c5.6-1,9.4-6.4,8.4-12c-1-5.6-6.4-9.4-12-8.4l-34.9,6.2c-5.6,1-9.4,6.4-8.4,12c0.9,5,5.3,8.6,10.2,8.6
	C11,265,11.6,264.9,12.2,264.8 M430.4,256.4c1-5.6-2.8-11-8.4-12l-34.9-6.2c-5.6-1-11,2.8-12,8.4c-1,5.6,2.8,11,8.4,12l34.9,6.2
	c0.6,0.1,1.2,0.2,1.8,0.2C425.2,265,429.5,261.4,430.4,256.4 M387.1,198.7l34.9-6.2c5.6-1,9.4-6.4,8.4-12c-1-5.6-6.4-9.4-12-8.4
	l-34.9,6.2c-5.6,1-9.4,6.4-8.4,12c0.9,5,5.3,8.6,10.2,8.6C385.9,198.9,386.5,198.8,387.1,198.7 M370,141.1l30.7-17.7
	c5-2.9,6.7-9.2,3.8-14.2c-2.9-5-9.2-6.7-14.2-3.8l-30.7,17.7c-5,2.9-6.7,9.2-3.8,14.2c1.9,3.3,5.4,5.2,9,5.2
	C366.6,142.5,368.3,142.1,370,141.1 M334.2,92.9L357,65.7c3.7-4.4,3.1-10.9-1.3-14.6c-4.4-3.7-10.9-3.1-14.6,1.3l-22.8,27.2
	c-3.7,4.4-3.1,10.9,1.3,14.6c1.9,1.6,4.3,2.4,6.7,2.4C329.2,96.6,332.2,95.3,334.2,92.9 M284.1,59.8l12.1-33.3
	c2-5.4-0.8-11.3-6.2-13.3c-5.4-2-11.3,0.8-13.3,6.2l-12.1,33.3c-2,5.4,0.8,11.3,6.2,13.3c1.2,0.4,2.4,0.6,3.5,0.6
	C278.6,66.6,282.6,64,284.1,59.8"/>
</svg>
